<svg xmlns="http://www.w3.org/2000/svg" viewBox="0 0 3153.12 1397.16" width="3121.12" height="1365.16" style="background-color: rgb(33, 37, 41);"><defs><style>@import url('https://fonts.googleapis.com/css2?family=Caveat+Brush&amp;family=Source+Code+Pro&amp;family=Source+Sans+Pro&amp;family=Crimson+Pro&amp;display=block');</style></defs><g id="fbef198f-1550-497a-3928-02937780a399_svg" class="tl-centered-g" transform="translate(308.84, 172.77) rotate(0.00, 1237.71, 604.20)"><g pointer-events="none" stroke="#36a64c" stroke-width="9.09" stroke-linecap="round"><line x1="4.54" y1="4.54" x2="2470.87" y2="4.54" stroke-dasharray="none" stroke-dashoffset="none"/><line x1="2470.87" y1="4.54" x2="2470.87" y2="1203.84" stroke-dasharray="none" stroke-dashoffset="none"/><line x1="2470.87" y1="1203.84" x2="4.54" y2="1203.84" stroke-dasharray="none" stroke-dashoffset="none"/><line x1="4.54" y1="1203.84" x2="4.54" y2="4.54" stroke-dasharray="none" stroke-dashoffset="none"/></g></g><g text-align="center" text-anchor="middle" fill="#cecece" transform="translate(34.26, 360.65) rotate(0.00, 108.50, 19.00)"><text y="14" letter-spacing="-0.84" font-size="28px" font-family="Source Code Pro" text-align="center" alignment-baseline="central" x="108.5">experiment_id</text></g><g id="9880c77c-165a-4830-0be3-a8cd6707c56a_svg" class="tl-centered-g" transform="translate(16.00, 326.70) rotate(0.00, 126.76, 52.91)"><ellipse cx="126.76" cy="52.90" rx="123.42" ry="49.57" fill="none" stroke="#cecece" stroke-width="6.66" stroke-dasharray="none" stroke-dashoffset="none" pointer-events="none" stroke-linecap="round" stroke-linejoin="round"/></g><g text-align="center" text-anchor="middle" fill="#cecece" transform="translate(1036.54, 352.28) rotate(0.00, 85.00, 33.00)"><text y="14" letter-spacing="-0.84" font-size="28px" font-family="Source Code Pro" text-align="center" alignment-baseline="central" x="85">Downloaded</text><text y="42" letter-spacing="-0.84" font-size="28px" font-family="Source Code Pro" text-align="center" alignment-baseline="central" x="85">experiment</text></g><g id="e92daadd-0870-4d92-1307-7957f8dc7790_svg" class="tl-centered-g" transform="translate(974.36, 325.84) rotate(0.00, 147.18, 59.44)"><ellipse cx="147.18" cy="59.43" rx="143.85" ry="56.10" fill="none" stroke="#cecece" stroke-width="6.66" stroke-dasharray="none" stroke-dashoffset="none" pointer-events="none" stroke-linecap="round" stroke-linejoin="round"/></g><g text-align="center" text-anchor="middle" fill="#cecece" transform="translate(90.47, 923.19) rotate(0.00, 69.00, 33.00)"><text y="14" letter-spacing="-0.84" font-size="28px" font-family="Source Code Pro" text-align="center" alignment-baseline="central" x="69">Nissl</text><text y="42" letter-spacing="-0.84" font-size="28px" font-family="Source Code Pro" text-align="center" alignment-baseline="central" x="69">in CCFv2</text></g><g id="9612e0ce-c1ec-49f5-342b-a774cb2b51a3_svg" class="tl-centered-g" transform="translate(37.96, 890.57) rotate(0.00, 121.51, 65.62)"><ellipse cx="121.50" cy="65.61" rx="118.17" ry="62.28" fill="none" stroke="#cecece" stroke-width="6.66" stroke-dasharray="none" stroke-dashoffset="none" pointer-events="none" stroke-linecap="round" stroke-linejoin="round"/></g><g text-align="left" text-anchor="start" fill="#cecece" transform="translate(325.95, 1316.83) rotate(0.00, 13.00, 19.00)"><text y="14" letter-spacing="-0.84" font-size="28px" font-family="Source Code Pro" text-align="left" alignment-baseline="central"> </text></g><g text-align="center" text-anchor="middle" fill="#cecece" transform="translate(68.94, 1092.27) rotate(0.00, 85.00, 33.00)"><text y="14" letter-spacing="-0.84" font-size="28px" font-family="Source Code Pro" text-align="center" alignment-baseline="central" x="85">Annotation</text><text y="42" letter-spacing="-0.84" font-size="28px" font-family="Source Code Pro" text-align="center" alignment-baseline="central" x="85">in CCFv2</text></g><g id="dd758e2b-d157-4884-22b6-1b7f674895e9_svg" class="tl-centered-g" transform="translate(32.43, 1059.65) rotate(0.00, 121.51, 65.62)"><ellipse cx="121.50" cy="65.61" rx="118.17" ry="62.28" fill="none" stroke="#cecece" stroke-width="6.66" stroke-dasharray="none" stroke-dashoffset="none" pointer-events="none" stroke-linecap="round" stroke-linejoin="round"/></g><g text-align="center" text-anchor="middle" fill="#cecece" transform="translate(75.58, 1249.37) rotate(0.00, 85.00, 33.00)"><text y="14" letter-spacing="-0.84" font-size="28px" font-family="Source Code Pro" text-align="center" alignment-baseline="central" x="85">Annotation</text><text y="42" letter-spacing="-0.84" font-size="28px" font-family="Source Code Pro" text-align="center" alignment-baseline="central" x="85">in CCFv3</text></g><g id="f263fef0-20c5-40ca-2394-c4f458cf31ca_svg" class="tl-centered-g" transform="translate(39.07, 1216.75) rotate(0.00, 121.51, 65.62)"><ellipse cx="121.50" cy="65.61" rx="118.17" ry="62.28" fill="none" stroke="#cecece" stroke-width="6.66" stroke-dasharray="none" stroke-dashoffset="none" pointer-events="none" stroke-linecap="round" stroke-linejoin="round"/></g><g id="0a81d8ff-5464-451c-1c79-1cf7133b5171_svg" class="tl-centered-g" transform="translate(1013.47, 1036.64) rotate(0.00, 121.51, 65.62)"><ellipse cx="121.50" cy="65.61" rx="118.17" ry="62.28" fill="none" stroke="#cecece" stroke-width="6.66" stroke-dasharray="none" stroke-dashoffset="none" pointer-events="none" stroke-linecap="round" stroke-linejoin="round"/></g><g text-align="left" text-anchor="start" fill="#36a64c" transform="translate(1333.90, 16.00) rotate(0.00, 224.00, 53.00)"><text y="48" letter-spacing="-2.88" font-size="96px" font-family="Source Code Pro" text-align="left" alignment-baseline="central">Pipeline</text></g><g text-align="left" text-anchor="start" fill="#ebbb38" transform="translate(2362.51, 232.10) rotate(0.00, 13.00, 19.00)"><text y="14" letter-spacing="-0.84" font-size="28px" font-family="Source Code Pro" text-align="left" alignment-baseline="central"> </text></g><g id="dae97187-c993-4c26-390b-aa171e776d5d_svg" class="tl-centered-g" transform="translate(471.99, 229.00) rotate(0.00, 215.90, 157.85)"><g pointer-events="none" stroke="#ebbb38" stroke-width="9.09" stroke-linecap="round"><line x1="4.54" y1="4.54" x2="427.25" y2="4.54" stroke-dasharray="none" stroke-dashoffset="none"/><line x1="427.25" y1="4.54" x2="427.25" y2="311.16" stroke-dasharray="none" stroke-dashoffset="none"/><line x1="427.25" y1="311.16" x2="4.54" y2="311.16" stroke-dasharray="none" stroke-dashoffset="none"/><line x1="4.54" y1="311.16" x2="4.54" y2="4.54" stroke-dasharray="none" stroke-dashoffset="none"/></g></g><g text-align="center" text-anchor="middle" fill="#ebbb38" transform="translate(573.39, 250.91) rotate(0.00, 114.50, 53.00)"><text y="24" letter-spacing="-1.44" font-size="48px" font-family="Source Code Pro" text-align="center" alignment-baseline="central" x="114.5">Download</text><text y="72" letter-spacing="-1.44" font-size="48px" font-family="Source Code Pro" text-align="center" alignment-baseline="central" x="114.5">ISH</text></g><g fill="#ebbb38" transform="translate(523.39, 377.71) rotate(0.00, 164.50, 75.00)"><text y="14" letter-spacing="-0.84" font-size="28px" font-family="Source Code Pro" text-align="justify" alignment-baseline="central">Download ISH images</text><text y="42" letter-spacing="-0.84" font-size="28px" font-family="Source Code Pro" text-align="justify" alignment-baseline="central">from the Allen Brain</text><text y="70" letter-spacing="-0.84" font-size="28px" font-family="Source Code Pro" text-align="justify" alignment-baseline="central">database for a given</text><text y="98" letter-spacing="-0.84" font-size="28px" font-family="Source Code Pro" text-align="justify" alignment-baseline="central">experiment</text><text y="126" letter-spacing="-0.84" font-size="28px" font-family="Source Code Pro" text-align="justify" alignment-baseline="central"> </text></g><g id="81764977-4c5e-4bfd-1c1b-388086bc7c8b_svg" class="tl-centered-g" transform="translate(473.42, 940.38) rotate(0.00, 214.47, 168.19)"><g pointer-events="none" stroke="#ebbb38" stroke-width="9.09" stroke-linecap="round"><line x1="4.54" y1="4.54" x2="424.39" y2="4.54" stroke-dasharray="none" stroke-dashoffset="none"/><line x1="424.39" y1="4.54" x2="424.39" y2="331.84" stroke-dasharray="none" stroke-dashoffset="none"/><line x1="424.39" y1="331.84" x2="4.54" y2="331.84" stroke-dasharray="none" stroke-dashoffset="none"/><line x1="4.54" y1="331.84" x2="4.54" y2="4.54" stroke-dasharray="none" stroke-dashoffset="none"/></g></g><g text-align="center" text-anchor="middle" fill="#ebbb38" transform="translate(559.88, 960.81) rotate(0.00, 128.00, 53.00)"><text y="24" letter-spacing="-1.44" font-size="48px" font-family="Source Code Pro" text-align="center" alignment-baseline="central" x="128">Map Nissl</text><text y="72" letter-spacing="-1.44" font-size="48px" font-family="Source Code Pro" text-align="center" alignment-baseline="central" x="128">to CCFv3</text></g><g fill="#ebbb38" transform="translate(523.39, 1100.47) rotate(0.00, 164.50, 75.00)"><text y="14" letter-spacing="-0.84" font-size="28px" font-family="Source Code Pro" text-align="justify" alignment-baseline="central">Transform Nissl and</text><text y="42" letter-spacing="-0.84" font-size="28px" font-family="Source Code Pro" text-align="justify" alignment-baseline="central">annotation volume</text><text y="70" letter-spacing="-0.84" font-size="28px" font-family="Source Code Pro" text-align="justify" alignment-baseline="central">from the CCFv2 </text><text y="98" letter-spacing="-0.84" font-size="28px" font-family="Source Code Pro" text-align="justify" alignment-baseline="central">coordinate system to</text><text y="126" letter-spacing="-0.84" font-size="28px" font-family="Source Code Pro" text-align="justify" alignment-baseline="central">the CCFv3</text></g><g id="baefce95-07e4-41d4-3f93-9f9207507d47_svg" class="tl-centered-g" transform="translate(1390.08, 632.14) rotate(0.00, 215.90, 144.82)"><g pointer-events="none" stroke="#ebbb38" stroke-width="9.09" stroke-linecap="round"><line x1="4.54" y1="4.54" x2="427.25" y2="4.54" stroke-dasharray="none" stroke-dashoffset="none"/><line x1="427.25" y1="4.54" x2="427.25" y2="285.10" stroke-dasharray="none" stroke-dashoffset="none"/><line x1="427.25" y1="285.10" x2="4.54" y2="285.10" stroke-dasharray="none" stroke-dashoffset="none"/><line x1="4.54" y1="285.10" x2="4.54" y2="4.54" stroke-dasharray="none" stroke-dashoffset="none"/></g></g><g text-align="center" text-anchor="middle" fill="#ebbb38" transform="translate(1477.98, 654.30) rotate(0.00, 128.00, 53.00)"><text y="24" letter-spacing="-1.44" font-size="48px" font-family="Source Code Pro" text-align="center" alignment-baseline="central" x="128">Align ISH</text><text y="72" letter-spacing="-1.44" font-size="48px" font-family="Source Code Pro" text-align="center" alignment-baseline="central" x="128">slices</text></g><g fill="#ebbb38" transform="translate(1417.48, 785.71) rotate(0.00, 188.50, 47.00)"><text y="14" letter-spacing="-0.84" font-size="28px" font-family="Source Code Pro" text-align="justify" alignment-baseline="central">Align all ISH slices</text><text y="42" letter-spacing="-0.84" font-size="28px" font-family="Source Code Pro" text-align="justify" alignment-baseline="central">to the CCFv3 coordinate</text><text y="70" letter-spacing="-0.84" font-size="28px" font-family="Source Code Pro" text-align="justify" alignment-baseline="central">system</text></g><g id="993568ad-b0f2-47e2-1588-076969e63cfb_svg" class="tl-centered-g" transform="translate(2300.73, 635.47) rotate(0.00, 215.90, 144.82)"><g pointer-events="none" stroke="#ebbb38" stroke-width="9.09" stroke-linecap="round"><line x1="4.54" y1="4.54" x2="427.25" y2="4.54" stroke-dasharray="none" stroke-dashoffset="none"/><line x1="427.25" y1="4.54" x2="427.25" y2="285.10" stroke-dasharray="none" stroke-dashoffset="none"/><line x1="427.25" y1="285.10" x2="4.54" y2="285.10" stroke-dasharray="none" stroke-dashoffset="none"/><line x1="4.54" y1="285.10" x2="4.54" y2="4.54" stroke-dasharray="none" stroke-dashoffset="none"/></g></g><g text-align="center" text-anchor="middle" fill="#ebbb38" transform="translate(2361.13, 659.99) rotate(0.00, 155.50, 53.00)"><text y="24" letter-spacing="-1.44" font-size="48px" font-family="Source Code Pro" text-align="center" alignment-baseline="central" x="155.5">Interpolate</text><text y="72" letter-spacing="-1.44" font-size="48px" font-family="Source Code Pro" text-align="center" alignment-baseline="central" x="155.5">ISH slices</text></g><g fill="#ebbb38" transform="translate(2336.13, 789.04) rotate(0.00, 180.50, 33.00)"><text y="14" letter-spacing="-0.84" font-size="28px" font-family="Source Code Pro" text-align="justify" alignment-baseline="central">Fill in missing slices</text><text y="42" letter-spacing="-0.84" font-size="28px" font-family="Source Code Pro" text-align="justify" alignment-baseline="central">using interpolation</text></g><g text-align="center" text-anchor="middle" fill="#cecece" transform="translate(2020.04, 740.95) rotate(0.00, 61.00, 33.00)"><text y="14" letter-spacing="-0.84" font-size="28px" font-family="Source Code Pro" text-align="center" alignment-baseline="central" x="61">Aligned</text><text y="42" letter-spacing="-0.84" font-size="28px" font-family="Source Code Pro" text-align="center" alignment-baseline="central" x="61">slices</text></g><g id="0de13d06-ba22-46d6-27c5-2917c1cffd44_svg" class="tl-centered-g" transform="translate(1933.86, 714.51) rotate(0.00, 147.18, 59.44)"><ellipse cx="147.18" cy="59.43" rx="143.85" ry="56.10" fill="none" stroke="#cecece" stroke-width="6.66" stroke-dasharray="none" stroke-dashoffset="none" pointer-events="none" stroke-linecap="round" stroke-linejoin="round"/></g><g text-align="center" text-anchor="middle" fill="#cecece" transform="translate(1065.98, 1069.26) rotate(0.00, 69.00, 33.00)"><text y="14" letter-spacing="-0.84" font-size="28px" font-family="Source Code Pro" text-align="center" alignment-baseline="central" x="69">Nissl</text><text y="42" letter-spacing="-0.84" font-size="28px" font-family="Source Code Pro" text-align="center" alignment-baseline="central" x="69">in CCFv3</text></g><g text-align="center" text-anchor="middle" fill="#cecece" transform="translate(2936.94, 740.95) rotate(0.00, 53.00, 33.00)"><text y="14" letter-spacing="-0.84" font-size="28px" font-family="Source Code Pro" text-align="center" alignment-baseline="central" x="53">Brain</text><text y="42" letter-spacing="-0.84" font-size="28px" font-family="Source Code Pro" text-align="center" alignment-baseline="central" x="53">volume</text></g><g id="ab58a6d3-21a5-4eb8-1461-30a3be25a04f_svg" class="tl-centered-g" transform="translate(2842.76, 714.51) rotate(0.00, 147.18, 59.44)"><ellipse cx="147.18" cy="59.43" rx="143.85" ry="56.10" fill="none" stroke="#cecece" stroke-width="6.66" stroke-dasharray="none" stroke-dashoffset="none" pointer-events="none" stroke-linecap="round" stroke-linejoin="round"/></g><g id="28784ab3-3bd6-457e-3fcd-4e802645ae77_svg" class="tl-centered-g" transform="translate(902.35, 1104.01) rotate(0.00, 51.58, 0.74)"><defs><mask id="28784ab3-3bd6-457e-3fcd-4e802645ae77_clip"><rect x="-100" y="-100" width="303.15" height="201.48" fill="white"/><rect x="51.58" y="0.74" width="0" height="0" rx="3.22" ry="3.22" fill="black" opacity="1"/></mask></defs><g pointer-events="none" opacity="1" mask=""><path d="M0,1.48L103.16,0" fill="#cecece" stroke="#cecece" stroke-width="6.66" stroke-dasharray="none" stroke-dashoffset="none" stroke-linecap="round" stroke-linejoin="round" pointer-events="stroke"/><g><path d="M 78.71,-13.65070755855683 L 103.16,0 79.11,14.34641131867856" fill="none" stroke="#cecece" stroke-width="6.66" stroke-linecap="round" stroke-linejoin="round" pointer-events="none"/></g></g></g><g id="64828d2d-bf39-4036-1fbf-3d6bb43b79fc_svg" class="tl-centered-g" transform="translate(1163.75, 442.22) rotate(0.00, 105.17, 141.88)"><defs><mask id="64828d2d-bf39-4036-1fbf-3d6bb43b79fc_clip"><rect x="-100" y="-100" width="410.33" height="483.76" fill="white"/><rect x="105.16" y="141.88" width="0" height="0" rx="4" ry="4" fill="black" opacity="1"/></mask></defs><g pointer-events="none" opacity="1" mask=""><path d="M0,0L210.33,283.76" fill="#cecece" stroke="#cecece" stroke-width="6.66" stroke-dasharray="none" stroke-dashoffset="none" stroke-linecap="round" stroke-linejoin="round" pointer-events="stroke"/><g><path d="M 207.13,255.94258448276648 L 210.33,283.76 184.64,272.61598850972496" fill="none" stroke="#cecece" stroke-width="6.66" stroke-linecap="round" stroke-linejoin="round" pointer-events="none"/></g></g></g><g id="ecb3911d-7455-428a-259f-f690f28b5552_svg" class="tl-centered-g" transform="translate(1180.56, 783.20) rotate(0.00, 96.76, 129.12)"><defs><mask id="ecb3911d-7455-428a-259f-f690f28b5552_clip"><rect x="-100" y="-100" width="393.52" height="458.23" fill="white"/><rect x="96.76" y="129.11" width="0" height="0" rx="4" ry="4" fill="black" opacity="1"/></mask></defs><g pointer-events="none" opacity="1" mask=""><path d="M0,258.23L193.52,0" fill="#cecece" stroke="#cecece" stroke-width="6.66" stroke-dasharray="none" stroke-dashoffset="none" stroke-linecap="round" stroke-linejoin="round" pointer-events="stroke"/><g><path d="M 167.77,11.008703134395757 L 193.52,0 190.18,27.800233282753744" fill="none" stroke="#cecece" stroke-width="6.66" stroke-linecap="round" stroke-linejoin="round" pointer-events="none"/></g></g></g><g id="70cad166-321c-483e-3843-8bac0d6f6fa8_svg" class="tl-centered-g" transform="translate(1821.88, 774.02) rotate(0.00, 51.99, 0.50)"><defs><mask id="70cad166-321c-483e-3843-8bac0d6f6fa8_clip"><rect x="-100" y="-100" width="303.98" height="201" fill="white"/><rect x="51.99" y="0.48" width="0" height="0" rx="3.24" ry="3.24" fill="black" opacity="1"/></mask></defs><g pointer-events="none" opacity="1" mask=""><path d="M0,0.96L103.98,0" fill="#cecece" stroke="#cecece" stroke-width="6.66" stroke-dasharray="none" stroke-dashoffset="none" stroke-linecap="round" stroke-linejoin="round" pointer-events="stroke"/><g><path d="M 79.60,-13.775535588458682 L 103.98,0 79.86,14.223271129479054" fill="none" stroke="#cecece" stroke-width="6.66" stroke-linecap="round" stroke-linejoin="round" pointer-events="none"/></g></g></g><g text-align="center" text-anchor="middle" fill="#cecece" transform="translate(963.42, 840.83) rotate(0.00, 18.50, 29.00)"><text y="24" letter-spacing="-1.44" font-size="48px" font-family="Source Code Pro" text-align="center" alignment-baseline="central" x="18.5"> </text></g><g text-align="center" text-anchor="middle" fill="#cecece" transform="translate(726.99, 731.17) rotate(0.00, 18.50, 29.00)"><text y="24" letter-spacing="-1.44" font-size="48px" font-family="Source Code Pro" text-align="center" alignment-baseline="central" x="18.5"> </text></g><g id="e0139fbe-dbc1-4e20-2de1-e60d29fce3d7_svg" class="tl-centered-g" transform="translate(272.63, 980.10) rotate(0.00, 92.39, 19.52)"><defs><mask id="e0139fbe-dbc1-4e20-2de1-e60d29fce3d7_clip"><rect x="-100" y="-100" width="384.78" height="239.04" fill="white"/><rect x="92.39" y="19.52" width="0" height="0" rx="4" ry="4" fill="black" opacity="1"/></mask></defs><g pointer-events="none" opacity="1" mask=""><path d="M0,0L184.79,39.04" fill="#cecece" stroke="#cecece" stroke-width="6.66" stroke-dasharray="none" stroke-dashoffset="none" stroke-linecap="round" stroke-linejoin="round" pointer-events="stroke"/><g><path d="M 163.95,20.33004046846547 L 184.79,39.04 158.17,47.72533787961403" fill="none" stroke="#cecece" stroke-width="6.66" stroke-linecap="round" stroke-linejoin="round" pointer-events="none"/></g></g></g><g id="4938a985-8dca-41e7-3cd3-447a9c36d752_svg" class="tl-centered-g" transform="translate(264.30, 1184.53) rotate(0.00, 96.56, 31.82)"><defs><mask id="4938a985-8dca-41e7-3cd3-447a9c36d752_clip"><rect x="-100" y="-100" width="393.12" height="263.65" fill="white"/><rect x="96.56" y="31.82" width="0" height="0" rx="4" ry="4" fill="black" opacity="1"/></mask></defs><g pointer-events="none" opacity="1" mask=""><path d="M0,63.65L193.12,0" fill="#cecece" stroke="#cecece" stroke-width="6.66" stroke-dasharray="none" stroke-dashoffset="none" stroke-linecap="round" stroke-linejoin="round" pointer-events="stroke"/><g><path d="M 165.70,-5.705992537086576 L 193.12,0 174.47,20.886869714124636" fill="none" stroke="#cecece" stroke-width="6.66" stroke-linecap="round" stroke-linejoin="round" pointer-events="none"/></g></g></g><g id="48436724-680e-4020-19cf-1811d50b1d9f_svg" class="tl-centered-g" transform="translate(274.76, 1107.71) rotate(0.00, 91.33, 5.29)"><defs><mask id="48436724-680e-4020-19cf-1811d50b1d9f_clip"><rect x="-100" y="-100" width="382.65" height="210.57" fill="white"/><rect x="91.32" y="5.28" width="0" height="0" rx="4" ry="4" fill="black" opacity="1"/></mask></defs><g pointer-events="none" opacity="1" mask=""><path d="M0,10.57L182.65,0" fill="#cecece" stroke="#cecece" stroke-width="6.66" stroke-dasharray="none" stroke-dashoffset="none" stroke-linecap="round" stroke-linejoin="round" pointer-events="stroke"/><g><path d="M 157.63,-12.575681011446354 L 182.65,0 159.25,15.377550912937158" fill="none" stroke="#cecece" stroke-width="6.66" stroke-linecap="round" stroke-linejoin="round" pointer-events="none"/></g></g></g><g id="1154b6dc-7d5d-4509-2764-9079e6fbec00_svg" class="tl-centered-g" transform="translate(269.51, 377.81) rotate(0.00, 93.24, 0.54)"><defs><mask id="1154b6dc-7d5d-4509-2764-9079e6fbec00_clip"><rect x="-100" y="-100" width="386.48" height="201.07" fill="white"/><rect x="93.24" y="0.53" width="0" height="0" rx="4" ry="4" fill="black" opacity="1"/></mask></defs><g pointer-events="none" opacity="1" mask=""><path d="M0,1.07L186.48,0" fill="#cecece" stroke="#cecece" stroke-width="6.66" stroke-dasharray="none" stroke-dashoffset="none" stroke-linecap="round" stroke-linejoin="round" pointer-events="stroke"/><g><path d="M 162.15,-13.860635619595461 L 186.48,0 162.31,14.138903465930545" fill="none" stroke="#cecece" stroke-width="6.66" stroke-linecap="round" stroke-linejoin="round" pointer-events="none"/></g></g></g><g id="45aa3165-b5d2-459b-2c0a-9ff80c8bbc87_svg" class="tl-centered-g" transform="translate(904.36, 381.44) rotate(0.00, 31.09, 0.50)"><defs><mask id="45aa3165-b5d2-459b-2c0a-9ff80c8bbc87_clip"><rect x="-100" y="-100" width="262.17" height="201" fill="white"/><rect x="31.08" y="0.36" width="0" height="0" rx="2" ry="2" fill="black" opacity="1"/></mask></defs><g pointer-events="none" opacity="1" mask=""><path d="M0,0L62.17,0.72" fill="#cecece" stroke="#cecece" stroke-width="6.66" stroke-dasharray="none" stroke-dashoffset="none" stroke-linecap="round" stroke-linejoin="round" pointer-events="stroke"/><g><path d="M 44.34,-9.849512763574927 L 62.17,0.72 44.10,10.873820569758399" fill="none" stroke="#cecece" stroke-width="6.66" stroke-linecap="round" stroke-linejoin="round" pointer-events="none"/></g></g></g><g id="6517ba62-573a-42c2-1b58-72da15dc301a_svg" class="tl-centered-g" transform="translate(2228.20, 772.43) rotate(0.00, 28.27, 0.50)"><defs><mask id="6517ba62-573a-42c2-1b58-72da15dc301a_clip"><rect x="-100" y="-100" width="256.53" height="201" fill="white"/><rect x="28.26" y="0.20" width="0" height="0" rx="2" ry="2" fill="black" opacity="1"/></mask></defs><g pointer-events="none" opacity="1" mask=""><path d="M0,0.42L56.53,0" fill="#cecece" stroke="#cecece" stroke-width="6.66" stroke-dasharray="none" stroke-dashoffset="none" stroke-linecap="round" stroke-linejoin="round" pointer-events="stroke"/><g><path d="M 40.14,-9.300423110136844 L 56.53,0 40.28,9.542910223196486" fill="none" stroke="#cecece" stroke-width="6.66" stroke-linecap="round" stroke-linejoin="round" pointer-events="none"/></g></g></g><g id="7467a034-099f-428b-1d31-3f1f932f6095_svg" class="tl-centered-g" transform="translate(2735.66, 776.76) rotate(0.00, 49.70, 0.72)"><defs><mask id="7467a034-099f-428b-1d31-3f1f932f6095_clip"><rect x="-100" y="-100" width="299.40" height="201.45" fill="white"/><rect x="49.70" y="0.72" width="0" height="0" rx="3.10" ry="3.10" fill="black" opacity="1"/></mask></defs><g pointer-events="none" opacity="1" mask=""><path d="M0,0L99.41,1.45" fill="#cecece" stroke="#cecece" stroke-width="6.66" stroke-dasharray="none" stroke-dashoffset="none" stroke-linecap="round" stroke-linejoin="round" pointer-events="stroke"/><g><path d="M 75.36,-12.902166450629828 L 99.41,1.45 74.95,15.094855481430788" fill="none" stroke="#cecece" stroke-width="6.66" stroke-linecap="round" stroke-linejoin="round" pointer-events="none"/></g></g></g></svg>
